<svg xmlns="http://www.w3.org/2000/svg" width="250" height="70" viewBox="0 0 250 70"><path fill="#FFFFFF" d="M223.185 32.648a3.234 3.234 0 1 0 0 6.47 3.234 3.234 0 0 0 0-6.47m8.624 0a3.235 3.235 0 0 0 0 6.469 3.235 3.235 0 0 0 0-6.469m-25.879 0a3.235 3.235 0 1 0 .004 6.47 3.235 3.235 0 0 0-.004-6.47m8.63 0a3.234 3.234 0 1 0 0 6.47 3.234 3.234 0 0 0 0-6.47m0-8.627a3.233 3.233 0 0 0-3.234 3.234 3.233 3.233 0 1 0 6.467 0 3.235 3.235 0 0 0-3.233-3.234m25.878 8.627a3.236 3.236 0 0 0-3.238 3.234 3.237 3.237 0 0 0 6.471 0 3.234 3.234 0 0 0-3.233-3.234m-17.253-8.627a3.233 3.233 0 0 0-3.234 3.234 3.233 3.233 0 1 0 6.467 0 3.235 3.235 0 0 0-3.233-3.234m8.624 0a3.235 3.235 0 0 0 0 6.47 3.236 3.236 0 0 0 0-6.47m-25.879 0a3.235 3.235 0 1 0 .004 6.47 3.235 3.235 0 0 0-.004-6.47m8.63-8.627a3.235 3.235 0 1 0 .001 6.47 3.235 3.235 0 0 0-.001-6.47m8.625 0a3.235 3.235 0 1 0 .001 6.47 3.235 3.235 0 0 0-.001-6.47m-17.255 0a3.235 3.235 0 1 0 3.238 3.236 3.237 3.237 0 0 0-3.238-3.236m8.63 25.877a3.234 3.234 0 0 0-3.234 3.238 3.234 3.234 0 0 0 6.467 0 3.237 3.237 0 0 0-3.233-3.238m8.625 0a3.234 3.234 0 0 0-3.234 3.238 3.234 3.234 0 0 0 6.467 0 3.237 3.237 0 0 0-3.233-3.238m8.624 0a3.237 3.237 0 0 0 0 6.471 3.236 3.236 0 0 0 0-6.471m-25.879 0a3.237 3.237 0 0 0 0 6.471 3.237 3.237 0 1 0 0-6.471m8.63 8.628a3.233 3.233 0 0 0-3.234 3.233 3.233 3.233 0 1 0 6.467 0 3.236 3.236 0 0 0-3.233-3.233m8.625 0a3.233 3.233 0 0 0-3.234 3.233 3.233 3.233 0 1 0 6.467 0 3.236 3.236 0 0 0-3.233-3.233m-17.255 0a3.235 3.235 0 1 0 .004 6.47 3.235 3.235 0 0 0-.004-6.47"/><path fill="#FFFFFF" d="M33.549 43.405c0 2.651-.625 5.004-1.877 7.063-1.254 2.055-3.06 3.651-5.422 4.795-2.357 1.139-5.129 1.708-8.305 1.708-2.651 0-4.875-.2-6.672-.598-1.797-.4-3.667-1.097-5.609-2.091v-10.29a30.494 30.494 0 0 0 6.398 2.643c2.218.636 4.248.956 6.101.956 1.597 0 2.767-.298 3.514-.896.743-.592 1.114-1.358 1.114-2.293 0-.587-.149-1.099-.447-1.534-.3-.44-.783-.886-1.443-1.335-.665-.446-2.431-1.36-5.3-2.748-2.595-1.263-4.542-2.491-5.84-3.681-1.299-1.19-2.259-2.553-2.887-4.095-.625-1.539-.938-3.363-.938-5.469 0-3.934 1.334-7.003 4.003-9.21 2.668-2.202 6.334-3.305 11-3.305 4.123 0 8.327 1.025 12.61 3.074l-3.296 8.918c-3.718-1.833-6.935-2.753-9.639-2.753-1.397 0-2.416.267-3.051.792-.636.525-.952 1.183-.952 1.962 0 .836.403 1.588 1.21 2.25.81.663 3.002 1.871 6.579 3.625 3.432 1.657 5.813 3.434 7.148 5.333 1.333 1.904 2.001 4.295 2.001 7.179M51.403 47.938c1.437 0 3.151-.382 5.148-1.139v8.331c-1.435.663-2.8 1.135-4.099 1.419-1.299.28-2.818.425-4.564.425-3.574 0-6.152-.942-7.733-2.822-1.577-1.881-2.369-4.771-2.369-8.667V31.827h-3.729v-4.65l4.735-3.594 2.753-6.959h6.97v6.636h7.573v8.567h-7.573v12.895c.002 2.144.966 3.216 2.888 3.216M79.279 56.389l-2.042-4.386h-.217c-1.432 1.911-2.896 3.217-4.386 3.917-1.488.7-3.412 1.052-5.771 1.052-2.907 0-5.193-.934-6.865-2.807-1.668-1.873-2.504-4.501-2.504-7.891 0-3.532 1.146-6.156 3.432-7.884 2.289-1.724 5.603-2.691 9.941-2.912l5.146-.169v-.469c0-2.729-1.252-4.094-3.756-4.094-2.253 0-5.113.818-8.581 2.455L60.6 25.658c3.592-1.988 8.133-2.98 13.618-2.98 3.957 0 7.019 1.054 9.19 3.158 2.168 2.104 3.256 5.048 3.256 8.827v21.726h-7.385zm-7.895-7.486c1.288 0 2.389-.44 3.31-1.314.914-.881 1.375-2.02 1.375-3.423v-2.573l-2.451.118c-3.505.138-5.257 1.519-5.257 4.151-.002 2.027 1.006 3.041 3.023 3.041M109.744 22.678c.927 0 1.806.078 2.642.236l.601.116-.957 10.786c-.87-.233-2.077-.351-3.621-.351-2.322 0-4.012.569-5.064 1.712-1.054 1.142-1.582 2.782-1.582 4.928v16.284H91.118V23.263h7.924l1.661 5.291h.519c.89-1.752 2.128-3.171 3.714-4.255 1.592-1.083 3.193-1.621 4.808-1.621"/><path fill="#FFFFFF" d="M129.613 47.938c1.435 0 3.151-.382 5.148-1.139v8.331c-1.434.663-2.8 1.135-4.101 1.419-1.295.28-2.815.425-4.562.425-3.576 0-6.152-.942-7.735-2.822-1.577-1.881-2.366-4.771-2.366-8.667V31.827h-3.732v-4.65l4.737-3.594 2.753-6.959h6.97v6.636h7.573v8.567h-7.573v12.895c.002 2.144.964 3.216 2.888 3.216M164.028 43.405c0 2.651-.625 5.004-1.879 7.063-1.253 2.055-3.059 3.651-5.421 4.795-2.359 1.139-5.126 1.708-8.307 1.708-2.648 0-4.875-.2-6.672-.598-1.797-.4-3.667-1.097-5.609-2.091v-10.29a30.613 30.613 0 0 0 6.399 2.643c2.215.636 4.25.956 6.101.956 1.599 0 2.769-.298 3.512-.896.744-.592 1.118-1.358 1.118-2.293 0-.587-.149-1.099-.451-1.534-.298-.44-.781-.886-1.441-1.335-.665-.446-2.427-1.36-5.298-2.748-2.596-1.263-4.541-2.491-5.843-3.681-1.296-1.19-2.259-2.553-2.887-4.095-.625-1.539-.938-3.363-.938-5.469 0-3.934 1.337-7.003 4.006-9.21 2.669-2.202 6.336-3.305 11.002-3.305 4.121 0 8.322 1.025 12.608 3.074l-3.294 8.918c-3.723-1.833-6.937-2.753-9.644-2.753-1.395 0-2.413.267-3.049.792s-.954 1.183-.954 1.962c0 .836.404 1.588 1.212 2.25s2.998 1.871 6.576 3.625c3.432 1.657 5.814 3.434 7.148 5.333 1.338 1.904 2.005 4.295 2.005 7.179M181.663 56.972c-5.138 0-9.126-1.466-11.968-4.399-2.843-2.933-4.264-7.107-4.264-12.529 0-5.591 1.318-9.888 3.952-12.879 2.633-2.991 6.39-4.486 11.275-4.486 4.646 0 8.238 1.299 10.767 3.901 2.536 2.602 3.801 6.352 3.801 11.241v5.09h-19.035c.071 1.853.703 3.305 1.893 4.357 1.188 1.052 2.81 1.578 4.862 1.578 1.87 0 3.589-.19 5.157-.573 1.572-.378 3.276-1.027 5.108-1.941v8.213a17.847 17.847 0 0 1-5.173 1.904c-1.78.349-3.904.523-6.375.523m-.623-26.519c-1.252 0-2.305.425-3.145 1.272-.848.85-1.342 2.18-1.486 3.99h9.15c-.036-1.597-.459-2.874-1.269-3.828-.804-.956-1.889-1.434-3.25-1.434"/></svg>