<svg xmlns="http://www.w3.org/2000/svg" width="20" height="20" viewBox="0 0 310 310" fill="#FFF"><path d="M297.917 64.645c-11.19-13.302-31.85-18.728-71.306-18.728H83.387c-40.36 0-61.37 5.776-72.517 19.938C0 79.663 0 100.008 0 128.165v53.67c0 54.55 12.896 82.248 83.386 82.248h143.226c34.216 0 53.176-4.788 65.442-16.527 12.58-12.038 17.946-31.693 17.946-65.72v-53.67c0-29.695-.84-50.16-12.083-63.52zM199.02 162.41l-65.037 33.99c-1.454.76-3.044 1.138-4.632 1.138-1.797 0-3.59-.484-5.18-1.446-2.992-1.813-4.82-5.056-4.82-8.554v-67.764c0-3.492 1.823-6.732 4.81-8.546 2.986-1.814 6.7-1.938 9.8-.328l65.038 33.772c3.31 1.718 5.387 5.134 5.392 8.86.004 3.73-2.065 7.152-5.37 8.878z"/></svg>